<?xml version="1.0" encoding="UTF-8" standalone="no"?><!DOCTYPE svg PUBLIC "-//W3C//DTD SVG 1.1//EN" "http://www.w3.org/Graphics/SVG/1.1/DTD/svg11.dtd">
<svg width="100%" height="100%" viewBox="0 0 24 24" version="1.1" xmlns="http://www.w3.org/2000/svg"
     xmlns:xlink="http://www.w3.org/1999/xlink" xml:space="preserve"
     style="fill-rule:evenodd;clip-rule:evenodd;stroke-linejoin:round;stroke-miterlimit:2;"><g id="Icon"><path d="M10.099,12.813c0.38,-0.166 0.822,0.007 0.988,0.386c0.166,0.38 -0.007,0.822 -0.386,0.988c-0.828,0.362 -1.741,0.563 -2.701,0.563c-3.725,0 -6.75,-3.025 -6.75,-6.75c-0,-3.725 3.025,-6.75 6.75,-6.75c3.725,0 6.75,3.025 6.75,6.75c0,0.96 -0.201,1.873 -0.563,2.701c-0.166,0.379 -0.608,0.552 -0.988,0.386c-0.379,-0.166 -0.552,-0.608 -0.386,-0.988c0.281,-0.643 0.437,-1.353 0.437,-2.099c0,-2.898 -2.352,-5.25 -5.25,-5.25c-2.898,0 -5.25,2.352 -5.25,5.25c-0,2.898 2.352,5.25 5.25,5.25c0.746,0 1.456,-0.156 2.099,-0.437Z"/><path d="M16,9.25c3.725,0 6.75,3.025 6.75,6.75c0,3.725 -3.025,6.75 -6.75,6.75c-3.725,-0 -6.75,-3.025 -6.75,-6.75c0,-3.725 3.025,-6.75 6.75,-6.75Zm0,1.5c-2.898,-0 -5.25,2.352 -5.25,5.25c0,2.898 2.352,5.25 5.25,5.25c2.898,0 5.25,-2.352 5.25,-5.25c-0,-2.898 -2.352,-5.25 -5.25,-5.25Z"/><path d="M4.77,8.53c-0.293,-0.292 -0.293,-0.768 -0,-1.06c0.292,-0.293 0.768,-0.293 1.06,-0l1.27,1.269l3.07,-3.069c0.292,-0.293 0.768,-0.293 1.06,-0c0.293,0.292 0.293,0.768 0,1.06l-3.6,3.6c-0.293,0.293 -0.767,0.293 -1.06,0l-1.8,-1.8Z"/><path d="M14.73,18.33c-0.292,0.293 -0.768,0.293 -1.06,0c-0.293,-0.292 -0.293,-0.768 -0,-1.06l3.6,-3.6c0.292,-0.293 0.768,-0.293 1.06,-0c0.293,0.292 0.293,0.768 0,1.06l-3.6,3.6Z"/><path d="M18.33,17.27c0.293,0.292 0.293,0.768 0,1.06c-0.292,0.293 -0.768,0.293 -1.06,0l-3.6,-3.6c-0.293,-0.292 -0.293,-0.768 -0,-1.06c0.292,-0.293 0.768,-0.293 1.06,-0l3.6,3.6Z"/></g></svg>
