<?xml version="1.0" encoding="iso-8859-1"?>
<!-- Uploaded to: SVG Repo, www.svgrepo.com, Generator: SVG Repo Mixer Tools -->
<svg fill="#000000" height="800px" width="800px" version="1.1" id="Layer_1" xmlns="http://www.w3.org/2000/svg" xmlns:xlink="http://www.w3.org/1999/xlink" 
	 viewBox="0 0 491.463 491.463" xml:space="preserve">
<g>
	<g>
		<path d="M454.03,242.291c-42.802-42.802-108.595-48.773-157.953-18.149c-12.641-17.471-30.549-30.315-51.487-36.601l-16.49-4.86
			l-70.66,70.66l-70.66-70.66l-16.54,4.87C28.23,200.161,0,238.101,0,281.961v86.68h240.69c5.807,20.028,16.561,38.911,32.32,54.67
			c24.95,24.95,57.73,37.43,90.51,37.43c32.78,0,65.56-12.48,90.51-37.43C503.94,373.401,503.94,292.201,454.03,242.291z
			 M236.606,348.161H20.48v-66.2c0-34.75,22.36-64.81,55.59-74.78l4.83-1.42l76.54,76.54l76.54-76.54l4.78,1.41
			c16.614,4.989,30.846,15.224,40.864,29.144c-2.234,1.944-4.489,3.851-6.614,5.976
			C244.146,271.155,232.085,310.471,236.606,348.161z M287.49,256.771c20.96-20.96,48.5-31.44,76.03-31.44
			c24.32,0,48.631,8.209,68.423,24.567L280.617,401.224C245.743,359.029,248.014,296.247,287.49,256.771z M439.55,408.831
			c-39.476,39.476-102.258,41.747-144.453,6.873l151.326-151.326C481.297,306.574,479.026,369.355,439.55,408.831z"/>
	</g>
</g>
<g>
	<g>
		<path d="M153.6,30.721c-39.52,0-71.68,32.16-71.68,71.68c0,39.52,32.16,71.68,71.68,71.68c39.52,0,71.68-32.16,71.68-71.68
			C225.28,62.881,193.12,30.721,153.6,30.721z M153.6,153.601c-28.23,0-51.2-22.97-51.2-51.2c0-28.23,22.97-51.2,51.2-51.2
			c28.23,0,51.2,22.97,51.2,51.2C204.8,130.631,181.83,153.601,153.6,153.601z"/>
	</g>
</g>
</svg>